<svg width="24" height="23" viewBox="0 0 24 23" fill="none" xmlns="http://www.w3.org/2000/svg">
<path d="M1 1H5L7.68 14.3234C7.77144 14.7815 8.02191 15.193 8.38755 15.4859C8.75318 15.7787 9.2107 15.9343 9.68 15.9254H19.4C19.8693 15.9343 20.3268 15.7787 20.6925 15.4859C21.0581 15.193 21.3086 14.7815 21.4 14.3234L23 5.97512H6M10 20.9005C10 21.45 9.55228 21.8955 9 21.8955C8.44772 21.8955 8 21.45 8 20.9005C8 20.351 8.44772 19.9055 9 19.9055C9.55228 19.9055 10 20.351 10 20.9005ZM21 20.9005C21 21.45 20.5523 21.8955 20 21.8955C19.4477 21.8955 19 21.45 19 20.9005C19 20.351 19.4477 19.9055 20 19.9055C20.5523 19.9055 21 20.351 21 20.9005Z" stroke="#667085" stroke-width="2" stroke-linecap="round" stroke-linejoin="round"/>
</svg>
